inDegrees=yes
name=ik_S46_A07_T02
DataType=double
version=3
OpenSimVersion=4.3-2021-08-27-4bc7ad9
endheader
time	pelvis_tilt	pelvis_list	pelvis_rotation	pelvis_tx	pelvis_ty	pelvis_tz	hip_flexion_r	hip_adduction_r	hip_rotation_r	knee_angle_r	knee_angle_r_beta	ankle_angle_r	subtalar_angle_r	mtp_angle_r	hip_flexion_l	hip_adduction_l	hip_rotation_l	knee_angle_l	knee_angle_l_beta	ankle_angle_l	subtalar_angle_l	mtp_angle_l	lumbar_extension	lumbar_bending	lumbar_rotation	arm_flex_r	arm_add_r	arm_rot_r	elbow_flex_r	pro_sup_r	wrist_flex_r	wrist_dev_r	arm_flex_l	arm_add_l	arm_rot_l	elbow_flex_l	pro_sup_l	wrist_flex_l	wrist_dev_l
0	0	0	0	0	0.9399999999999999	0	0	0	0	0	0	0	0	0	0	0	0	0	0	0	0	0	0	0	0	0	0	0	0	89.99999999963507	0	0	0	0	0	0	89.99999999869995	0	0
0.02	-11.94342657479784	-1.332030065822913	27.20136608952597	0	0.9399999999999999	0	4.231599087107775	-2.006251212762442	-1.428794099289449	6.434798211700723	0.1123084154956207	0	0	0	4.231599087107775	-2.006251212762442	-1.428794099289449	6.434798211700723	0.1123084154956207	0	0	0	-8.365243835930785	-4.763368537549481	5.078981892183152	11.14164779653832	-10.11007772931272	-3.972975016064761	68.68259643773294	142.350690369755	0	0	13.39156060972707	-4.379138041371553	8.628928713467538	57.6051176238301	120.1578250262772	0	0
0.04	-11.3950511768524	-2.64054211633158	25.55313378296209	0	0.9399999999999999	0	31.21574723271523	-12.55759681974894	-9.731851938447743	41.81305451524819	0.7297754716069624	0	0	0	31.21574723271523	-12.55759681974894	-9.731851938447743	41.81305451524819	0.7297754716069624	0	0	0	-8.128457771076432	-3.590729151211054	6.938561940736386	11.13039863424137	-10.10836847039845	-3.969672040570587	68.6255671431077	142.3988746030431	0	0	13.37834702193395	-4.356633821045643	8.625063183236685	57.57979752666751	120.1536639767126	0	0
0.06	-11.39487231547511	-2.645708062742726	25.55309533217785	0	0.9399999999999999	0	31.23798781155132	-12.54397026006803	-9.732775919875527	41.82750557900474	0.7300276902499298	0	0	0	31.23798781155132	-12.54397026006803	-9.732775919875527	41.82750557900474	0.7300276902499298	0	0	0	-8.134191811202321	-3.588944977000248	6.933351825026105	11.1409103451613	-10.10760820614592	-3.96423801241201	68.64529941169039	142.3343186446705	0	0	13.41207217177168	-4.380098008424984	8.617905112404593	57.59874200972632	120.1268233900303	0	0
0.08	-11.39188189306526	-2.654509418872285	25.57128281321042	0	0.9399999999999999	0	31.25048639686483	-12.53756098487088	-9.733252523254261	41.83587090554488	0.7301736927410598	0	0	0	31.25048639686483	-12.53756098487088	-9.733252523254261	41.83587090554488	0.7301736927410598	0	0	0	-8.137484903876359	-3.593864495234585	6.925952521273462	11.12615681891195	-10.0700216099431	-3.988230733743046	68.63625689923484	142.4340471819162	0	0	13.41912500559462	-4.377915713714311	8.61356966957832	57.53114407353743	120.1945794047327	0	0
0.1	-11.39041764287514	-2.654782087559326	25.56856388762245	0	0.9399999999999999	0	31.26039633690596	-12.53590165783782	-9.733498831718915	41.84338747219573	0.7303048815775627	0	0	0	31.26039633690596	-12.53590165783782	-9.733498831718915	41.84338747219573	0.7303048815775627	0	0	0	-8.137938414395155	-3.592069406140888	6.927471628358464	11.1392955593705	-10.06901397222518	-4.016354706454186	68.62148574233299	142.4617787076507	0	0	13.41463634597081	-4.370708724470873	8.587975527464202	57.50563600477594	120.2126658028834	0	0
0.12	-11.38672453400217	-2.660108447969206	25.57154099488023	0	0.9399999999999999	0	31.27651030376423	-12.52477784848745	-9.734211619656255	41.85364500532587	0.7304839093038161	0	0	0	31.27651030376423	-12.52477784848745	-9.734211619656255	41.85364500532587	0.7304839093038161	0	0	0	-8.139411060009721	-3.59399331512511	6.923994174009674	11.14166104609667	-10.0733672808994	-4.023265861658024	68.62481604995959	142.3975811295242	0	0	13.44146970224259	-4.384117433216039	8.576064329743613	57.52065824426722	120.1913520599217	0	0
0.14	-11.38337196296573	-2.660723115333375	25.5887179348521	0	0.9399999999999999	0	31.29994327448893	-12.51405394187764	-9.735060726270344	41.86949123386915	0.7307604781659197	0	0	0	31.29994327448893	-12.51405394187764	-9.735060726270344	41.86949123386915	0.7307604781659197	0	0	0	-8.141002173180871	-3.589438102242448	6.919393920665124	11.14226414881883	-10.0588070396505	-4.032478920563398	68.60852265654643	142.4230598494466	0	0	13.44208598898866	-4.375285749528519	8.57617162492153	57.49929745401887	120.2285040702529	0	0
0.16	-11.38030989292436	-2.665348193642936	25.58421747242891	0	0.9399999999999999	0	31.32501612718857	-12.50444852907604	-9.735903106532616	41.88682728857562	0.7310630493998536	0	0	0	31.32501612718857	-12.50444852907604	-9.735903106532616	41.88682728857562	0.7310630493998536	0	0	0	-8.144156830225487	-3.586980688467435	6.918510465891401	11.14923955686661	-10.05602332111144	-4.037596255090816	68.57652614041389	142.4576942965659	0	0	13.45258936553492	-4.38926471514519	8.559807493150402	57.46263075274494	120.2727513303508	0	0
0.18	-11.37223388406558	-2.664402446822924	25.58531574600134	0	0.9399999999999999	0	31.34996495547165	-12.49243713162807	-9.736827963930786	41.90355836990723	0.7313550618565091	0	0	0	31.34996495547165	-12.49243713162807	-9.736827963930786	41.90355836990723	0.7313550618565091	0	0	0	-8.140511859744207	-3.581794901578665	6.913866802049843	11.13190925058706	-10.03970454436	-4.03371062559303	68.57436957553774	142.4532769551816	0	0	13.43100563298666	-4.391257385983272	8.565000989312473	57.46103789665623	120.2680135678561	0	0
0.2	-11.36470131359894	-2.666017336765903	25.58931664035519	0	0.9399999999999999	0	31.363768007251	-12.48555169088923	-9.737346667211396	41.91281956839427	0.7315167002627887	0	0	0	31.363768007251	-12.48555169088923	-9.737346667211396	41.91281956839427	0.7315167002627887	0	0	0	-8.136409906113736	-3.583365826777848	6.917625054324955	11.12534128466463	-10.0233471828011	-4.030079772011481	68.55644396057997	142.4807246551327	0	0	13.42158344704841	-4.393078373729987	8.591610372243377	57.44018432170022	120.2832561895995	0	0
0.22	-11.36055268927887	-2.667695189423971	25.58866913924944	0	0.9399999999999999	0	31.38998320162414	-12.47468901161327	-9.738255737044334	41.93087980832647	0.7318319109133057	0	0	0	31.38998320162414	-12.47468901161327	-9.738255737044334	41.93087980832647	0.7318319109133057	0	0	0	-8.138052835209432	-3.578355907520809	6.913385144880894	11.1194003607759	-10.00164256220422	-4.043045698421962	68.54528213191961	142.4839621995831	0	0	13.4090947241939	-4.389450909864054	8.583737782800434	57.44792235396893	120.2722236181358	0	0
0.24	-11.34541194401268	-2.667850320361862	25.58435730234014	0	0.9399999999999999	0	31.42485484569896	-12.45807717823522	-9.739541424344429	41.95452904703821	0.7322446679944157	0	0	0	31.42485484569896	-12.45807717823522	-9.739541424344429	41.95452904703821	0.7322446679944157	0	0	0	-8.130504824443095	-3.574124753727385	6.902880095425238	11.09741976762625	-9.992208817894872	-4.033118441789989	68.54360704571525	142.4765099120352	0	0	13.38439112109521	-4.40705061334261	8.571005495517355	57.44144337047654	120.2776556162973	0	0
0.26	-11.34379998241917	-2.669826295132907	25.58730551307952	0	0.9399999999999999	0	31.48055037162487	-12.43117565642645	-9.74160326603555	41.99213577599819	0.7329010292356725	0	0	0	31.48055037162487	-12.43117565642645	-9.74160326603555	41.99213577599819	0.7329010292356725	0	0	0	-8.139431521418324	-3.560165310797847	6.894648793730165	11.10121398908492	-9.977752426400524	-4.047191914286326	68.57700125876822	142.4107505815389	0	0	13.39599943417621	-4.404364759077614	8.560011482917835	57.46727695343637	120.2379348571326	0	0
0.28	-11.32586713795219	-2.676778669634811	25.57787098596014	0	0.9399999999999999	0	31.51342212744863	-12.42012446654835	-9.742644081343382	42.0153984716853	0.733307039868302	0	0	0	31.51342212744863	-12.42012446654835	-9.742644081343382	42.0153984716853	0.733307039868302	0	0	0	-8.132227243497004	-3.563778216300258	6.887245374535468	11.07862967854362	-9.906579070207036	-4.047477121106619	68.59296544609742	142.4400089460627	0	0	13.38022173308992	-4.421988964565852	8.542762010449787	57.44783232339299	120.2537819918903	0	0
